# xmcd
#
# Track frame offsets:
#	150
#	11535
#	30745
#	52012
#	72047
#	96240
#	125597
#	145000
#	161390
#	183122
#	193550
#	223737
#
# Disc length: 3296
#
# Revision: 6
# Processed by: cddbd v1.5.1PL0 Copyright (c) Steve Scherf et al.
# Submitted via: CDex 1.50Beta7
# Normalized: r5:DSETVAR1,TDELIM( - )
#
DISCID=a20cde0c
DTITLE=Various Artist - Basic Jazz v.2
DYEAR=1900
DGENRE=Jazz
TTITLE0=Art Tatum - I Cover The Waterfront
TTITLE1=McCoy Tyner - All The Things You Are
TTITLE2=The Jazz Crusaders - New Time Shuffle
TTITLE3=Charlie Parker - Ornithology
TTITLE4=Al Di Meola - July
TTITLE5=Ronnie Laws - Night Breeze
TTITLE6=Dave Koz - You Make Me Smile
TTITLE7=Chick Corea - My One And Only Love
TTITLE8=Freddie Hubbard - Cry Me Not
TTITLE9=Chet Baker - My Funny Valentine
TTITLE10=Lou Donaldson - Blues Walk
TTITLE11=Charlie Parker And Dizzie Gillespie - Groovin' High (Live)
EXTD=
EXTT0=
EXTT1=
EXTT2=
EXTT3=
EXTT4=
EXTT5=
EXTT6=
EXTT7=
EXTT8=
EXTT9=
EXTT10=
EXTT11=
PLAYORDER=
